<svg width="410" height="136" viewBox="0 0 410 136" fill="none" xmlns="http://www.w3.org/2000/svg">
<rect width="409.164" height="68" fill="white"/>
<g clip-path="url(#clip0)">
<path fill-rule="evenodd" clip-rule="evenodd" d="M199.91 28.8477C199.721 28.8856 199.531 29.3027 199.531 29.5299C199.493 31.0472 199.455 35.0672 199.455 37.7976C199.455 37.8736 199.569 38.0253 199.682 38.0253C200.251 38.0631 201.616 38.1009 202.792 38.1009C204.423 38.1009 205.371 37.8736 205.902 37.6464C207.267 36.9634 207.912 35.4843 207.912 33.8532C207.912 30.1751 205.333 28.7717 201.503 28.7717C201.237 28.7339 200.479 28.7339 199.91 28.8477V28.8477ZM209.695 45.7998C209.695 42.0453 206.926 39.9592 201.92 39.9592C201.692 39.9592 200.1 39.9214 199.72 39.9971C199.606 40.0353 199.455 40.1113 199.455 40.2251C199.455 42.9173 199.417 47.2032 199.531 48.8717C199.606 49.5921 200.138 50.6162 200.783 50.9195C201.465 51.2988 203.02 51.3744 204.082 51.3744C207.078 51.3744 209.695 49.706 209.695 45.7998V45.7998ZM192.174 26.7621C192.553 26.7621 193.69 26.8756 196.611 26.8756C199.379 26.8756 201.579 26.7999 204.271 26.7999C207.57 26.7999 212.121 27.9753 212.121 32.9056C212.121 35.3327 210.415 37.2671 208.177 38.2151C208.064 38.2529 208.064 38.3286 208.177 38.3664C211.363 39.1632 214.17 41.135 214.17 44.8513C214.17 48.4924 211.894 50.8057 208.595 52.2469C206.585 53.119 204.082 53.4223 201.541 53.4223C199.606 53.4223 194.411 53.195 191.529 53.271C191.226 53.1568 191.795 51.7916 192.06 51.5643C192.743 51.5261 193.273 51.4883 193.994 51.2606C195.018 50.9955 195.132 50.6918 195.283 49.1372C195.359 47.8098 195.359 43.1068 195.359 39.7698C195.359 35.181 195.397 32.0713 195.359 30.5545C195.321 29.3791 194.904 28.9994 194.07 28.7717C193.425 28.6583 192.363 28.5062 191.491 28.3928C191.301 28.203 191.946 26.9134 192.174 26.7621ZM170.291 50.3508C171.202 51.0708 172.984 51.374 174.577 51.374C176.625 51.374 178.673 50.9955 180.645 49.2124C182.655 47.3927 184.058 44.5862 184.058 40.1113C184.058 35.8254 182.427 32.3364 179.09 30.289C177.194 29.1128 174.766 28.6205 171.96 28.6205C171.126 28.6205 170.329 28.6583 169.837 28.8856C169.722 28.9616 169.457 29.3027 169.457 29.4921C169.381 30.2508 169.381 36.0909 169.381 39.5043C169.381 43.0312 169.381 47.9614 169.457 48.5302C169.457 49.0994 169.722 49.9714 170.292 50.3508H170.291ZM161.682 26.7617C162.403 26.7617 165.171 26.8756 166.499 26.8756C168.888 26.8756 170.595 26.7621 175.108 26.7621C178.9 26.7621 182.086 27.7858 184.361 29.7198C187.129 32.1091 188.571 35.4087 188.571 39.4283C188.571 45.155 185.954 48.4546 183.337 50.3508C180.721 52.2847 177.307 53.4223 172.453 53.4223C169.874 53.4223 165.437 53.3466 161.758 53.3084H161.721C161.531 52.9673 162.024 51.6399 162.327 51.6021C163.313 51.4883 163.579 51.4501 164.072 51.261C164.868 50.9573 165.02 50.5402 165.134 49.1372C165.247 46.5202 165.21 43.3727 165.21 39.8076C165.21 37.2671 165.247 32.2986 165.171 30.7057C165.058 29.3787 164.489 29.0372 163.351 28.8095C162.782 28.6961 162.024 28.544 160.962 28.4306C160.81 28.1647 161.493 26.9894 161.682 26.7621V26.7617Z" fill="#8E714E"/>
<path fill-rule="evenodd" clip-rule="evenodd" d="M115.795 51.8296C114.847 51.7158 114.164 51.5645 113.33 51.1852C113.216 51.1092 113.026 50.7303 113.026 50.5782C112.951 49.2508 112.951 45.4585 112.951 42.9179C112.951 40.8697 112.609 39.0874 111.737 37.836C110.713 36.3944 109.234 35.5605 107.338 35.5605C105.669 35.5605 103.432 36.6981 101.573 38.291C101.535 38.3288 101.232 38.5947 101.27 38.1771C101.27 37.76 101.346 36.9258 101.384 36.3566C101.422 35.8256 101.118 35.5605 101.118 35.5605C99.9047 36.1671 96.4917 36.9636 95.2399 37.077C94.33 37.2673 94.1023 38.1393 95.0508 38.4426H95.0886C96.1119 38.7459 96.7949 39.0874 97.3255 39.4289C97.7048 39.7322 97.667 40.1493 97.667 40.4908C97.7048 43.3347 97.7048 47.6962 97.5914 50.0855C97.5536 51.0336 97.2881 51.3747 96.6051 51.5263L96.6811 51.4885C96.1501 51.6023 95.733 51.7158 95.0882 51.7918C94.8606 52.0194 94.8606 53.233 95.0882 53.4985C95.5054 53.4985 97.7048 53.3847 99.5258 53.3847C102.029 53.3847 103.318 53.4985 103.962 53.4985C104.228 53.1952 104.304 52.0573 104.152 51.7918C103.432 51.754 102.901 51.6784 102.408 51.5263C101.725 51.3742 101.535 51.0336 101.497 50.2371C101.422 48.2267 101.422 43.9794 101.422 41.0974C101.422 40.301 101.649 39.9216 101.876 39.694C102.749 38.9358 104.152 38.4048 105.404 38.4048C106.617 38.4048 107.413 38.7841 108.02 39.2773C108.855 39.9595 109.12 40.9458 109.234 41.6662C109.423 43.2968 109.348 46.5204 109.348 49.3268C109.348 50.8437 109.234 51.223 108.665 51.4125C108.4 51.5263 107.717 51.6784 106.921 51.7536C106.655 52.0194 106.731 53.1952 106.921 53.4607C108.02 53.4607 109.31 53.3468 111.206 53.3468C113.557 53.3468 115.074 53.4607 115.681 53.4607C115.87 53.233 115.946 52.1333 115.795 51.8296V51.8296ZM126.3 37.3433C124.29 37.3433 123.038 38.8979 123.038 41.3247C123.038 43.79 124.138 46.6342 127.248 46.6342C127.779 46.6342 128.765 46.4066 129.22 45.8756C129.94 45.1934 130.434 43.8278 130.434 42.3866C130.434 39.239 128.879 37.3429 126.3 37.3429V37.3433ZM126.034 54.1051C125.276 54.1051 124.745 54.3327 124.404 54.5226C122.811 55.5459 122.09 56.5322 122.09 57.7084C122.09 58.8077 122.507 59.6797 123.418 60.4384C124.517 61.3864 126.034 61.8418 127.968 61.8418C131.837 61.8418 133.543 59.7558 133.543 57.7084C133.543 56.2667 132.822 55.3186 131.344 54.7881C130.282 54.3327 128.348 54.1051 126.034 54.1051V54.1051ZM126.3 63.9656C123.986 63.9656 122.318 63.4725 120.877 62.3727C119.473 61.3108 118.867 59.7179 118.867 58.6182C118.867 58.3149 118.943 57.4803 119.625 56.722C120.042 56.2667 120.953 55.3947 123.114 53.9156C123.19 53.8778 123.228 53.84 123.228 53.7636C123.228 53.6879 123.152 53.6119 123.076 53.5745C121.294 52.8919 120.763 51.7918 120.611 51.1852V51.1092C120.573 50.8815 120.497 50.6542 120.839 50.4266C121.104 50.2371 121.484 50.0094 121.9 49.7444C122.545 49.3647 123.228 48.9475 123.645 48.606C123.721 48.5304 123.721 48.4548 123.721 48.3788C123.721 48.3027 123.645 48.2267 123.569 48.1893C120.915 47.3168 119.588 45.3447 119.588 42.3866C119.588 40.4526 120.46 38.7081 122.014 37.6084C123.076 36.7741 125.731 35.75 127.475 35.75H127.589C129.372 35.7878 130.358 36.1671 131.761 36.6603C132.519 36.9258 133.24 37.0392 134.226 37.0392C135.705 37.0392 136.35 36.5842 136.88 36.0537C136.919 36.1293 136.995 36.3192 137.032 36.8119C137.07 37.3051 136.918 38.0255 136.539 38.5564C136.236 38.9736 135.553 39.2773 134.871 39.2773H134.681C133.998 39.2012 133.695 39.1252 133.695 39.1252L133.543 39.2012C133.505 39.2773 133.543 39.3529 133.581 39.4667L133.619 39.5427C133.695 39.8838 133.847 40.9075 133.847 41.1734C133.847 44.2832 132.595 45.6479 131.268 46.6721C129.978 47.6201 128.5 48.2267 126.831 48.3788C126.793 48.3788 126.642 48.3788 126.3 48.4166C126.11 48.4166 125.845 48.4548 125.807 48.4548H125.769C125.465 48.5304 124.707 48.9097 124.707 49.5541C124.707 50.1229 125.048 50.8059 126.679 50.9197C127.02 50.9575 127.361 50.9575 127.741 50.9958C129.903 51.147 132.595 51.3368 133.847 51.754C135.591 52.3984 136.691 53.9534 136.691 55.8118C136.691 58.6186 134.681 61.2352 131.344 62.8655C129.713 63.5863 128.082 63.9656 126.3 63.9656V63.9656ZM147.916 37.5327C147.12 37.5327 146.399 37.7218 145.868 38.1011C144.39 39.0114 143.631 40.8319 143.631 43.4863C143.631 48.4548 146.134 51.9438 149.699 51.9438C150.761 51.9438 151.595 51.6401 152.315 51.0336C153.415 50.1229 153.984 48.3027 153.984 45.7618C153.984 40.8319 151.519 37.5323 147.917 37.5323L147.916 37.5327ZM148.599 53.764C142.152 53.764 139.839 49.0236 139.839 44.5864C139.839 41.4767 141.09 39.0874 143.593 37.3807C145.376 36.281 147.499 35.6744 149.396 35.6744C154.325 35.6744 157.777 39.2012 157.777 44.2832C157.777 47.734 156.412 50.4644 153.795 52.1333C152.543 52.9675 150.382 53.764 148.599 53.764H148.599V53.764ZM81.0186 37.5323C80.2222 37.5323 79.5018 37.7218 78.9704 38.1011C77.4918 39.0114 76.7332 40.8319 76.7332 43.4863C76.7332 48.4548 79.2359 51.9438 82.801 51.9438C83.8629 51.9438 84.6971 51.6401 85.4179 51.0336C86.5173 50.1229 87.0864 48.3027 87.0864 45.7618C87.0864 40.8319 84.6593 37.5323 81.0186 37.5323ZM81.7012 53.764C75.2541 53.764 72.9408 49.0236 72.9408 44.5864C72.9408 41.4767 74.1922 39.0874 76.6949 37.3807C78.4777 36.281 80.6015 35.6744 82.4977 35.6744C87.4279 35.6744 90.8788 39.2012 90.8788 44.2832C90.8788 47.734 89.5136 50.4644 86.8966 52.1333C85.683 52.9675 83.5214 53.764 81.7012 53.764ZM38.3541 53.3847C38.2781 53.2712 38.2021 52.9297 38.2403 52.5126C38.2403 52.2089 38.3163 52.0195 38.3541 51.9438C39.1506 51.8296 39.5677 51.7158 40.0226 51.6023C40.7812 51.4125 41.0845 50.9958 41.1223 50.0477C41.2366 47.7722 41.2366 43.4485 41.1984 40.4526V40.3766C41.1984 40.0355 41.1984 39.6179 40.7812 39.3147C40.1743 38.9358 39.4538 38.5947 38.5058 38.3284C38.1647 38.2153 37.937 38.0255 37.9748 37.7982C37.9748 37.5705 38.2025 37.3051 38.6956 37.229C39.947 37.1152 43.2079 36.3192 44.4975 35.75C44.5736 35.8256 44.6874 36.0537 44.6874 36.357L44.6496 36.7737C44.6114 37.1912 44.5736 37.6844 44.5736 38.1771C44.5736 38.3288 44.7256 38.4426 44.8769 38.4426C44.9529 38.4426 45.0289 38.4048 45.1045 38.3666C47.5316 36.4704 49.7311 35.7878 50.8686 35.7878C52.7274 35.7878 54.1686 36.6603 55.2684 38.4804C55.344 38.5947 55.42 38.6325 55.5338 38.6325C55.6095 38.6325 55.7229 38.5947 55.7611 38.5186C57.9988 36.8119 60.2364 35.7878 61.7151 35.7878C65.2419 35.7878 67.328 38.4048 67.328 42.8419C67.328 44.0933 67.328 45.724 67.2901 47.2034C67.2901 48.5304 67.2523 49.744 67.2523 50.6164C67.2523 50.8055 67.5174 51.4125 67.9345 51.5263C68.4655 51.7918 69.1863 51.9056 70.1344 52.0573H70.1722C70.2482 52.3227 70.0966 53.3086 69.9449 53.4985C69.7173 53.4985 69.3758 53.4985 68.9969 53.4607C68.0368 53.4106 67.0757 53.3852 66.1144 53.3847C63.7633 53.3847 62.5497 53.4225 61.3736 53.4985C61.2984 53.1952 61.2601 52.2849 61.3736 52.0573C62.0566 51.9438 62.3977 51.8296 62.8152 51.7162C63.5738 51.4885 63.7633 51.147 63.8015 50.1611C63.8015 49.4407 63.9527 43.2968 63.7251 41.8178C63.4978 40.301 62.3599 38.5186 59.8567 38.5186C58.9086 38.5186 57.43 38.8979 55.9888 39.9973C55.9132 40.0733 55.8367 40.2627 55.8367 40.3766V40.4148C55.9888 41.2108 55.9888 42.1215 55.9888 43.5245V45.9895C55.9888 47.6962 55.9506 49.289 55.9888 50.5022C55.9888 51.3368 56.4819 51.5263 56.899 51.6784C57.1267 51.7158 57.278 51.754 57.4678 51.7918C57.8089 51.8678 58.1504 51.9438 58.6814 52.0573C58.7574 52.2093 58.7574 52.7021 58.6436 53.1192C58.6053 53.3468 58.5293 53.4603 58.4915 53.4985C57.2023 53.4607 55.8749 53.4225 53.941 53.4225C53.3722 53.4225 52.3859 53.4607 51.5516 53.4607C50.8686 53.4607 50.2243 53.4985 49.8453 53.4985C49.8071 53.4225 49.7311 53.1574 49.7311 52.7399C49.7311 52.3988 49.8071 52.1333 49.8832 52.0573C50.0726 52.0195 50.2243 51.9816 50.4141 51.9816C50.8686 51.9056 51.2484 51.8296 51.6273 51.754C52.2725 51.5645 52.4997 51.223 52.5375 50.3888C52.6514 48.4926 52.7652 43.0696 52.4997 41.704C52.0448 39.5045 50.7934 38.4048 48.783 38.4048C47.6077 38.4048 46.1282 38.9736 44.9151 39.8842C44.7252 40.0355 44.5736 40.4144 44.5736 40.7559V42.9936C44.5736 45.724 44.5736 49.1374 44.6114 50.6164C44.6496 51.071 44.8008 51.6023 45.6733 51.7918C45.8632 51.8296 46.1664 51.9056 46.5458 51.9438L47.2279 52.0573C47.3044 52.2849 47.2662 53.1952 47.1145 53.4985C46.7352 53.4985 46.2803 53.4607 45.7489 53.4607C44.9529 53.4225 43.9288 53.3847 42.7912 53.3847C41.4638 53.3847 40.5158 53.4225 39.7571 53.4607C39.2262 53.3847 38.809 53.3847 38.3541 53.3847V53.3847Z" fill="#442D22"/>
<path fill-rule="evenodd" clip-rule="evenodd" d="M18.4051 62.4865L16.8504 61.9551C16.8504 61.9551 17.0403 54.0293 14.1956 53.4606C12.2999 51.2607 14.4997 -39.8324 21.3258 53.1569C21.3258 53.1569 18.9743 54.3322 18.5571 56.3426C18.1018 58.3148 18.4051 62.4865 18.4051 62.4865V62.4865Z" fill="white"/>
<path fill-rule="evenodd" clip-rule="evenodd" d="M18.4051 62.4865L16.8504 61.9551C16.8504 61.9551 17.0403 54.0293 14.1956 53.4606C12.2999 51.2607 14.4997 -39.8324 21.3258 53.1569C21.3258 53.1569 18.9743 54.3322 18.5571 56.3426C18.1018 58.3148 18.4051 62.4865 18.4051 62.4865V62.4865Z" fill="#A6A385"/>
<path fill-rule="evenodd" clip-rule="evenodd" d="M19.2399 54.8259C19.2399 54.8259 32.855 45.8756 29.6688 27.2546C26.5973 13.7164 19.3537 9.27929 18.5573 7.57258C17.6852 6.35902 16.8506 4.2356 16.8506 4.2356L17.4198 41.8934C17.4198 41.9316 16.244 53.4224 19.2403 54.8263" fill="white"/>
<path fill-rule="evenodd" clip-rule="evenodd" d="M19.2399 54.8259C19.2399 54.8259 32.855 45.8756 29.6688 27.2546C26.5973 13.7164 19.3537 9.27929 18.5573 7.57258C17.6852 6.35902 16.8506 4.2356 16.8506 4.2356L17.4198 41.8934C17.4198 41.9316 16.244 53.4224 19.2403 54.8263" fill="#499D4A"/>
<path fill-rule="evenodd" clip-rule="evenodd" d="M16.0547 55.3186C16.0547 55.3186 3.27385 46.596 4.03248 31.2372C4.75289 15.878 13.7788 8.33117 15.5233 6.96596C16.6613 5.7524 16.6991 5.29706 16.7751 4.0835C17.5715 5.79021 17.4199 29.6065 17.5333 32.4125C17.8744 43.2208 16.9267 53.2712 16.0547 55.3186Z" fill="white"/>
<path fill-rule="evenodd" clip-rule="evenodd" d="M16.0547 55.3186C16.0547 55.3186 3.27385 46.596 4.03248 31.2372C4.75289 15.878 13.7788 8.33117 15.5233 6.96596C16.6613 5.7524 16.6991 5.29706 16.7751 4.0835C17.5715 5.79021 17.4199 29.6065 17.5333 32.4125C17.8744 43.2208 16.9267 53.2712 16.0547 55.3186Z" fill="#58AA50"/>
</g>
<g clip-path="url(#clip1)">
<path d="M239.763 50.3826C239.763 50.3826 237.469 51.7135 241.396 52.1638C246.154 52.7052 248.586 52.6277 253.829 51.6377C253.829 51.6377 255.208 52.4999 257.133 53.2468C245.379 58.2717 230.531 52.9556 239.763 50.3826" fill="#5382A1"/>
<path d="M238.326 43.8254C238.326 43.8254 235.753 45.7257 239.683 46.1311C244.766 46.6541 248.78 46.6969 255.725 45.3629C255.725 45.3629 256.686 46.3343 258.197 46.8657C243.985 51.0109 228.156 47.1925 238.326 43.8254" fill="#5382A1"/>
<path d="M250.436 32.7022C253.332 36.0282 249.675 39.0212 249.675 39.0212C249.675 39.0212 257.029 35.2345 253.651 30.4924C250.497 26.0704 248.078 23.873 261.174 16.2974C261.174 16.2974 240.618 21.4182 250.436 32.702" fill="#E76F00"/>
<path d="M265.981 55.2326C265.981 55.2326 267.679 56.6281 264.111 57.7077C257.327 59.758 235.873 60.377 229.913 57.7894C227.77 56.8599 231.788 55.5698 233.052 55.2989C234.37 55.0138 235.123 55.067 235.123 55.067C232.74 53.3928 219.723 58.3544 228.511 59.7751C252.476 63.6519 272.198 58.0296 265.981 55.2326Z" fill="#5382A1"/>
<path d="M240.867 37.0312C240.867 37.0312 229.954 39.6168 237.002 40.5555C239.978 40.9529 245.911 40.8631 251.437 40.4011C255.953 40.0214 260.488 39.2133 260.488 39.2133C260.488 39.2133 258.896 39.8935 257.744 40.6782C246.662 43.5855 225.254 42.233 231.417 39.2592C236.629 36.7461 240.867 37.0312 240.867 37.0312" fill="#5382A1"/>
<path d="M260.443 47.946C271.709 42.107 266.5 36.4958 262.864 37.2518C261.973 37.4367 261.576 37.5969 261.576 37.5969C261.576 37.5969 261.907 37.0802 262.539 36.8565C269.731 34.3342 275.262 44.2952 260.217 48.2403C260.217 48.2405 260.391 48.0851 260.443 47.946" fill="#5382A1"/>
<path d="M253.651 4.06438C253.651 4.06438 259.89 10.2898 247.734 19.8622C237.986 27.5412 245.511 31.9195 247.73 36.9218C242.04 31.801 237.864 27.293 240.666 23.0976C244.777 16.9385 256.168 13.9526 253.651 4.06421" fill="#E76F00"/>
<path d="M241.973 63.7684C252.787 64.459 269.391 63.3854 269.785 58.2817C269.785 58.2817 269.029 60.2167 260.848 61.7531C251.619 63.4854 240.236 63.2832 233.484 62.1729C233.485 62.1729 234.866 63.3139 241.973 63.7684" fill="#5382A1"/>
</g>
<g clip-path="url(#clip2)">
<path d="M280.916 4H340.916V64H280.916V4Z" fill="#F7DF1E"/>
<path d="M296.693 54.1403L301.284 51.3616C302.17 52.9321 302.976 54.2611 304.909 54.2611C306.761 54.2611 307.93 53.5364 307.93 50.7173V31.5459H313.568V50.797C313.568 56.6369 310.145 59.2952 305.15 59.2952C300.64 59.2952 298.022 56.9592 296.692 54.1399" fill="black"/>
<path d="M316.63 53.5361L321.221 50.8781C322.43 52.8517 324.001 54.3016 326.779 54.3016C329.116 54.3016 330.605 53.1335 330.605 51.5224C330.605 49.5892 329.075 48.9044 326.497 47.7771L325.088 47.1724C321.02 45.441 318.322 43.266 318.322 38.6746C318.322 34.4456 321.544 31.2234 326.578 31.2234C330.163 31.2234 332.74 32.4721 334.593 35.7344L330.203 38.5539C329.236 36.8221 328.189 36.1375 326.578 36.1375C324.927 36.1375 323.879 37.1847 323.879 38.5539C323.879 40.2454 324.927 40.9305 327.343 41.9777L328.752 42.5817C333.545 44.636 336.244 46.7301 336.244 51.442C336.244 56.5171 332.257 59.2959 326.9 59.2959C321.664 59.2959 318.281 56.7989 316.63 53.5364" fill="black"/>
</g>
<path d="M378.54 63.9998C377.713 63.9998 376.941 63.7793 376.225 63.3935L368.893 59.0388C367.791 58.4325 368.342 58.212 368.673 58.1018C370.161 57.6057 370.437 57.4955 371.98 56.6134C372.146 56.5031 372.366 56.5582 372.531 56.6685L378.154 60.031C378.374 60.1412 378.65 60.1412 378.815 60.031L400.809 47.298C401.03 47.1877 401.14 46.9673 401.14 46.6917V21.2804C401.14 21.0048 401.03 20.7843 400.809 20.674L378.815 7.99595C378.595 7.88571 378.319 7.88571 378.154 7.99595L356.16 20.6743C355.94 20.7845 355.829 21.0601 355.829 21.2806V46.6917C355.829 46.9121 355.94 47.1877 356.16 47.298L362.169 50.7705C365.421 52.4241 367.46 50.4949 367.46 48.5657V23.4851C367.46 23.1544 367.736 22.8237 368.122 22.8237H370.933C371.264 22.8237 371.594 23.0993 371.594 23.4851V48.5655C371.594 52.9202 369.224 55.4557 365.09 55.4557C363.822 55.4557 362.83 55.4557 360.019 54.0777L354.231 50.7705C352.798 49.9435 351.916 48.4002 351.916 46.7466V21.3357C351.916 19.6821 352.798 18.1388 354.231 17.3118L376.225 4.57875C377.603 3.80708 379.477 3.80708 380.855 4.57875L402.848 17.3118C404.282 18.1386 405.163 19.6819 405.163 21.3357V46.7468C405.163 48.4004 404.282 49.9437 402.848 50.7705L380.855 63.5039C380.138 63.8346 379.311 64 378.54 64V63.9998ZM385.32 46.5261C375.673 46.5261 373.689 42.1165 373.689 38.3682C373.689 38.0375 373.965 37.7068 374.35 37.7068H377.217C377.547 37.7068 377.823 37.9273 377.823 38.258C378.264 41.1793 379.532 42.6126 385.375 42.6126C390.005 42.6126 391.99 41.5653 391.99 39.085C391.99 37.6517 391.438 36.6044 384.217 35.8876C378.209 35.2813 374.461 33.9585 374.461 29.1631C374.461 24.698 378.209 22.0522 384.493 22.0522C391.548 22.0522 395.021 24.4775 395.462 29.7692C395.462 29.9345 395.407 30.0999 395.297 30.2652C395.186 30.3755 395.021 30.4857 394.856 30.4857H391.99C391.714 30.4857 391.438 30.2652 391.383 29.9896C390.722 26.9581 389.013 25.9659 384.493 25.9659C379.422 25.9659 378.815 27.7297 378.815 29.0526C378.815 30.6513 379.532 31.1472 386.367 32.0291C393.147 32.911 396.344 34.1789 396.344 38.9194C396.289 43.7701 392.32 46.5261 385.32 46.5261V46.5261Z" fill="#539E43"/>
<rect width="350.37" height="68" transform="translate(0 68)" fill="white"/>
<path d="M5.34821 118.787V95.7305H34.1349V94.3819H5.34821V73.3482H35.955V72H4V120.135H36.2244V118.787H5.34862H5.34821ZM62.18 85.483L50.2476 101.191L38.5842 85.4834H36.8314L49.4383 102.203L35.6175 120.134H37.2356L50.2468 103.213L63.3255 120.134H65.0108L51.1232 102.202L63.7973 85.4825H62.1796L62.18 85.483ZM69.0562 132V110.427H69.1909C70.0002 113.573 71.5956 116.101 73.9777 118.012C76.3597 119.922 79.3932 120.877 83.0785 120.877C85.4606 120.877 87.5731 120.394 89.4158 119.427C91.2585 118.461 92.7977 117.147 94.0338 115.484C95.2695 113.821 96.2135 111.888 96.8654 109.686C97.5168 107.484 97.8429 105.169 97.8429 102.742C97.8429 100.135 97.5055 97.7306 96.8314 95.5286C96.1573 93.3262 95.1797 91.416 93.899 89.7983C92.618 88.1802 91.0675 86.9214 89.2471 86.0231C87.427 85.1241 85.3707 84.6745 83.0785 84.6745C81.3257 84.6745 79.6967 84.9331 78.191 85.4498C76.6854 85.9669 75.3486 86.6968 74.18 87.6408C73.0046 88.5921 71.9815 89.7174 71.1461 90.9778C70.2923 92.2588 69.6405 93.6633 69.1909 95.1916H69.0562V85.483H67.708V132H69.0562V132ZM83.0785 119.595C78.8542 119.595 75.4606 118.146 72.8989 115.247C70.3373 112.349 69.0562 108.18 69.0562 102.741C69.0562 100.494 69.371 98.3594 70.0002 96.3371C70.6294 94.3147 71.5394 92.5392 72.7302 91.0114C73.9214 89.4831 75.3935 88.2696 77.1459 87.3709C78.8987 86.4719 80.8766 86.0223 83.0785 86.0223C85.3258 86.0223 87.2923 86.4719 88.9776 87.3709C90.6628 88.2696 92.0564 89.4944 93.1574 91.0449C94.2584 92.5955 95.0899 94.371 95.6519 96.3706C96.2135 98.3707 96.4943 100.494 96.4943 102.741C96.4943 104.764 96.2362 106.776 95.7191 108.775C95.2023 110.775 94.4044 112.573 93.3257 114.169C92.2474 115.764 90.8656 117.067 89.1799 118.079C87.4942 119.09 85.4606 119.595 83.0785 119.595V119.595ZM105.259 120.135V100.517C105.259 98.6293 105.528 96.7862 106.068 94.9888C106.607 93.1911 107.438 91.6066 108.562 90.2361C109.686 88.8652 111.112 87.7865 112.843 86.9999C114.573 86.2133 116.629 85.8876 119.011 86.0223V84.6741C116.944 84.6296 115.135 84.8538 113.585 85.3482C112.034 85.8427 110.697 86.5168 109.573 87.3709C108.449 88.2247 107.551 89.2245 106.877 90.3708C106.203 91.5153 105.703 92.7535 105.393 94.0448H105.259V85.483H103.91V120.135H105.259V120.135ZM120.697 103.079H149.685C149.776 100.696 149.54 98.4047 148.978 96.2023C148.416 93.9999 147.517 92.0448 146.281 90.3373C145.045 88.6293 143.45 87.2585 141.494 86.2246C139.539 85.1908 137.213 84.6741 134.517 84.6741C132.584 84.6741 130.697 85.0787 128.854 85.888C127.011 86.6968 125.393 87.8763 124 89.4268C122.607 90.9774 121.483 92.8763 120.629 95.124C119.776 97.3709 119.348 99.9326 119.348 102.809C119.348 105.371 119.641 107.764 120.225 109.989C120.809 112.213 121.708 114.146 122.921 115.787C124.135 117.427 125.697 118.697 127.607 119.595C129.517 120.494 131.82 120.921 134.517 120.876C138.472 120.876 141.798 119.764 144.494 117.539C147.191 115.314 148.787 112.18 149.281 108.135H147.933C147.349 111.955 145.854 114.82 143.45 116.73C141.045 118.64 138.023 119.595 134.382 119.595C131.91 119.595 129.82 119.168 128.112 118.315C126.405 117.461 125.011 116.292 123.932 114.809C122.854 113.326 122.056 111.584 121.539 109.584C121.022 107.584 120.742 105.416 120.697 103.079ZM148.337 101.73H120.697C120.831 99.3034 121.281 97.1236 122.045 95.1912C122.809 93.2583 123.809 91.6066 125.045 90.2361C126.281 88.8652 127.719 87.8205 129.36 87.1011C131 86.382 132.764 86.0223 134.652 86.0223C136.899 86.0223 138.876 86.4383 140.584 87.2698C142.292 88.1013 143.719 89.2363 144.865 90.6743C146.011 92.1124 146.876 93.7867 147.461 95.6965C148.045 97.6068 148.337 99.6182 148.337 101.73ZM177.663 95.7305H179.011C179.011 91.8651 177.888 89.0562 175.641 87.3034C173.393 85.5505 170.337 84.6741 166.472 84.6741C164.315 84.6741 162.495 84.944 161.011 85.4834C159.528 86.0223 158.315 86.7191 157.371 87.5728C156.427 88.4266 155.753 89.3706 155.348 90.4044C154.944 91.4382 154.741 92.4272 154.741 93.3707C154.741 95.2583 155.079 96.7639 155.753 97.8876C156.427 99.0112 157.483 99.8876 158.921 100.517C159.91 100.966 161.033 101.371 162.292 101.731C163.551 102.09 165.011 102.472 166.674 102.876C168.157 103.236 169.618 103.596 171.056 103.955C172.494 104.315 173.764 104.798 174.865 105.404C175.967 106.011 176.865 106.787 177.562 107.731C178.258 108.674 178.607 109.91 178.607 111.438C178.607 112.921 178.259 114.18 177.562 115.213C176.871 116.242 175.962 117.105 174.899 117.742C173.82 118.393 172.618 118.865 171.292 119.157C169.966 119.449 168.674 119.595 167.416 119.595C163.326 119.595 160.191 118.685 158.011 116.865C155.832 115.045 154.742 112.18 154.742 108.269H153.393C153.393 112.629 154.573 115.82 156.933 117.843C159.292 119.865 162.787 120.876 167.416 120.876C168.899 120.876 170.393 120.708 171.899 120.371C173.404 120.034 174.753 119.483 175.944 118.719C177.125 117.965 178.116 116.951 178.843 115.753C179.584 114.539 179.955 113.056 179.955 111.303C179.955 109.64 179.629 108.292 178.978 107.258C178.326 106.225 177.472 105.371 176.416 104.697C175.36 104.023 174.169 103.494 172.843 103.113C171.509 102.728 170.172 102.357 168.831 102C167.181 101.567 165.53 101.14 163.876 100.719C162.461 100.359 161.146 99.9326 159.933 99.4381C158.764 98.9437 157.832 98.236 157.135 97.3146C156.438 96.3933 156.09 95.0787 156.09 93.3707C156.09 93.0563 156.18 92.4943 156.36 91.6855C156.539 90.8762 156.967 90.056 157.641 89.2245C158.315 88.3934 159.348 87.6518 160.742 86.9999C162.135 86.3485 164.045 86.0223 166.472 86.0223C168.135 86.0223 169.652 86.2024 171.022 86.5617C172.393 86.9214 173.573 87.4944 174.562 88.2809C175.551 89.0675 176.315 90.0674 176.854 91.2808C177.393 92.4947 177.663 93.9777 177.663 95.7305V95.7305ZM208.876 95.7305H210.225C210.225 91.8651 209.101 89.0562 206.854 87.3034C204.607 85.5505 201.551 84.6741 197.685 84.6741C195.528 84.6741 193.708 84.944 192.225 85.4834C190.741 86.0223 189.528 86.7191 188.584 87.5728C187.64 88.4266 186.966 89.3706 186.562 90.4044C186.157 91.4382 185.955 92.4272 185.955 93.3707C185.955 95.2583 186.292 96.7639 186.967 97.8876C187.64 99.0112 188.697 99.8876 190.135 100.517C191.124 100.966 192.247 101.371 193.505 101.731C194.764 102.09 196.225 102.472 197.888 102.876C199.371 103.236 200.832 103.596 202.27 103.955C203.708 104.315 204.977 104.798 206.079 105.404C207.18 106.011 208.079 106.787 208.775 107.731C209.472 108.674 209.82 109.91 209.82 111.438C209.82 112.921 209.472 114.18 208.775 115.213C208.085 116.242 207.175 117.105 206.113 117.742C205.034 118.393 203.832 118.865 202.506 119.157C201.18 119.449 199.888 119.595 198.629 119.595C194.539 119.595 191.405 118.685 189.225 116.865C187.045 115.045 185.955 112.18 185.955 108.269H184.607C184.607 112.629 185.786 115.82 188.146 117.843C190.506 119.865 194 120.876 198.629 120.876C200.113 120.876 201.607 120.708 203.113 120.371C204.618 120.034 205.966 119.483 207.158 118.719C208.338 117.965 209.33 116.951 210.056 115.753C210.798 114.539 211.169 113.056 211.169 111.303C211.169 109.64 210.843 108.292 210.191 107.258C209.54 106.225 208.686 105.371 207.629 104.697C206.573 104.023 205.382 103.494 204.057 103.113C202.723 102.728 201.386 102.357 200.045 102C198.395 101.567 196.743 101.14 195.09 100.719C193.674 100.359 192.36 99.9326 191.146 99.4381C189.978 98.9437 189.045 98.236 188.349 97.3146C187.652 96.3933 187.303 95.0787 187.303 93.3707C187.303 93.0563 187.393 92.4943 187.573 91.6855C187.753 90.8762 188.18 90.056 188.854 89.2245C189.528 88.3934 190.562 87.6518 191.955 86.9999C193.348 86.3485 195.258 86.0223 197.686 86.0223C199.349 86.0223 200.865 86.2024 202.236 86.5617C203.607 86.9214 204.786 87.4944 205.775 88.2809C206.764 89.0675 207.528 90.0674 208.068 91.2808C208.607 92.4947 208.877 93.9777 208.877 95.7305H208.876Z" fill="#222222"/>
<path d="M247.169 106.639C249.758 106.639 251.856 104.54 251.856 101.951C251.856 99.3626 249.758 97.2639 247.169 97.2639C244.58 97.2639 242.481 99.3626 242.481 101.951C242.481 104.54 244.58 106.639 247.169 106.639Z" fill="#007ACC"/>
<path d="M247.169 112.699C241.535 112.835 235.915 112.076 230.519 110.449C228.026 109.659 225.702 108.414 223.662 106.778C222.884 106.219 222.236 105.498 221.762 104.665C221.289 103.832 221.001 102.906 220.919 101.951C220.919 98.852 224.324 95.8145 230.028 93.827C235.568 92.0659 241.356 91.2124 247.169 91.2995C252.904 91.2194 258.615 92.0575 264.085 93.782C266.486 94.5473 268.732 95.7319 270.719 97.2808C271.484 97.8137 272.122 98.5084 272.589 99.3155C273.055 100.123 273.339 101.023 273.419 101.951C273.419 105.173 269.613 108.437 263.481 110.466C258.19 112.04 252.689 112.793 247.169 112.699V112.699ZM247.169 93.542C241.608 93.4677 236.07 94.2791 230.765 95.9458C225.515 97.7776 223.161 100.283 223.161 101.946C223.161 103.686 225.691 106.421 231.245 108.321C236.407 109.869 241.781 110.59 247.169 110.456C252.45 110.551 257.714 109.836 262.778 108.338C268.544 106.427 271.169 103.688 271.169 101.951C271.074 101.356 270.857 100.786 270.531 100.278C270.205 99.7705 269.778 99.336 269.275 99.002C267.497 97.6279 265.491 96.5781 263.348 95.9008C258.115 94.2578 252.653 93.4615 247.169 93.542V93.542Z" fill="#007ACC"/>
<path d="M236.518 125.331C235.644 125.351 234.779 125.138 234.013 124.716C231.328 123.167 230.398 118.701 231.525 112.766C232.768 107.087 234.92 101.646 237.9 96.6544C240.695 91.6465 244.274 87.118 248.499 83.2406C250.362 81.5432 252.51 80.1892 254.844 79.2413C255.689 78.8455 256.61 78.6404 257.543 78.6404C258.475 78.6404 259.396 78.8455 260.241 79.2413C263.033 80.85 263.957 85.7775 262.654 92.1019C261.373 97.4729 259.276 102.616 256.436 107.351C253.74 112.3 250.274 116.789 246.169 120.651C244.239 122.415 241.999 123.806 239.563 124.755C238.588 125.117 237.558 125.312 236.518 125.331V125.331ZM239.843 97.7681C237 102.548 234.937 107.75 233.73 113.179C232.693 118.644 233.689 121.931 235.136 122.768C236.636 123.636 240.278 122.813 244.699 118.95C248.618 115.251 251.926 110.954 254.499 106.219C257.22 101.692 259.231 96.7747 260.464 91.6388C261.69 85.6856 260.631 82.0406 259.127 81.1744C258.563 80.9584 257.961 80.8618 257.358 80.8905C256.755 80.9192 256.165 81.0727 255.624 81.3413C253.546 82.1988 251.636 83.4162 249.981 84.9375C245.943 88.6515 242.525 92.9868 239.856 97.7794L239.843 97.7681Z" fill="#007ACC"/>
<path d="M257.814 125.355C255.273 125.355 252.046 123.817 248.686 120.928C244.386 117.015 240.747 112.433 237.91 107.359C234.968 102.436 232.832 97.0735 231.584 91.4756C231.043 89.0127 230.943 86.4734 231.288 83.9756C231.368 83.049 231.65 82.1512 232.114 81.3455C232.579 80.5397 233.215 79.8458 233.977 79.3125C236.765 77.6981 241.495 79.3575 246.324 83.6437C250.337 87.4353 253.746 91.82 256.43 96.645C259.37 101.453 261.528 106.698 262.824 112.183C263.388 114.736 263.475 117.372 263.08 119.957C262.986 120.91 262.687 121.832 262.204 122.659C261.72 123.486 261.064 124.198 260.279 124.747C259.526 125.165 258.675 125.375 257.814 125.355V125.355ZM239.851 106.23C242.572 111.08 246.048 115.465 250.149 119.222C254.365 122.85 257.71 123.63 259.149 122.784C260.649 121.912 261.755 118.354 260.615 112.596C259.366 107.359 257.296 102.352 254.482 97.7625C251.92 93.1446 248.667 88.9459 244.835 85.3125C240.29 81.2775 236.604 80.3756 235.102 81.2456C234.634 81.626 234.249 82.0993 233.973 82.6357C233.698 83.1721 233.536 83.7598 233.499 84.3618C233.2 86.5895 233.298 88.8523 233.785 91.0462C234.986 96.3996 237.034 101.527 239.853 106.234L239.851 106.23Z" fill="#007ACC"/>
<path d="M326.961 113.904C329.293 113.662 331.062 111.651 330.982 109.238C330.902 106.826 328.891 104.895 326.478 104.895H326.317C323.824 104.976 321.894 107.067 321.974 109.56C322.055 110.767 322.537 111.812 323.261 112.536C320.526 117.925 316.344 121.866 310.071 125.163C305.808 127.415 301.385 128.22 296.962 127.657C293.343 127.174 290.528 125.566 288.758 122.911C286.185 118.97 285.943 114.708 288.115 110.445C289.643 107.389 292.056 105.137 293.584 104.011C293.262 102.965 292.779 101.196 292.538 99.9089C280.876 108.354 282.083 119.775 285.622 125.163C288.276 129.185 293.664 131.678 299.616 131.678C301.224 131.678 302.833 131.517 304.441 131.115C314.736 129.105 322.537 122.992 326.961 113.904V113.904ZM341.116 103.93C335.003 96.7721 325.996 92.8312 315.701 92.8312H314.414C313.69 91.3835 312.162 90.4182 310.473 90.4182H310.312C307.819 90.4986 305.889 92.5897 305.969 95.0832C306.05 97.4959 308.061 99.4263 310.473 99.4263H310.634C312.403 99.3458 313.932 98.2198 314.575 96.6916H316.023C322.135 96.6916 327.926 98.461 333.154 101.92C337.175 104.574 340.07 108.032 341.679 112.214C343.046 115.592 342.965 118.89 341.518 121.705C339.266 125.968 335.486 128.3 330.499 128.3C327.282 128.3 324.226 127.335 322.617 126.611C321.733 127.415 320.124 128.702 318.998 129.507C322.457 131.115 325.996 132 329.373 132C337.094 132 342.805 127.737 344.976 123.475C347.308 118.81 347.147 110.767 341.116 103.93V103.93ZM300.259 115.27C300.34 117.683 302.35 119.614 304.763 119.614H304.924C307.417 119.533 309.347 117.442 309.267 114.949C309.187 112.536 307.176 110.606 304.763 110.606H304.602C304.441 110.606 304.2 110.606 304.039 110.686C300.742 105.217 299.375 99.2653 299.857 92.8309C300.179 88.0052 301.787 83.8228 304.602 80.3643C306.935 77.3884 311.438 75.9407 314.495 75.8604C323.02 75.6995 326.639 86.316 326.88 90.5789C327.926 90.8201 329.695 91.3832 330.902 91.7854C329.936 78.7561 321.894 72 314.173 72C306.935 72 300.259 77.2279 297.605 84.9491C293.905 95.2439 296.318 105.137 300.822 112.938C300.42 113.501 300.179 114.386 300.259 115.271V115.27Z" fill="#764ABC"/>
<defs>
<clipPath id="clip0">
<rect width="210.411" height="60" fill="white" transform="translate(4 4)"/>
</clipPath>
<clipPath id="clip1">
<rect width="44.5055" height="60" fill="white" transform="translate(225.411 4)"/>
</clipPath>
<clipPath id="clip2">
<rect width="60" height="60" fill="white" transform="translate(280.916 4)"/>
</clipPath>
</defs>
</svg>
